<svg width="200" height="200" viewBox="0 0 200 200" fill="none" xmlns="http://www.w3.org/2000/svg"><path d="M100 200C155.228 200 200 155.228 200 100C200 44.7715 155.228 0 100 0C44.7715 0 0 44.7715 0 100C0 155.228 44.7715 200 100 200Z" fill="#F5F5FA"></path><path d="M100.062 179.9C119.3 179.9 134.896 178.717 134.896 177.258C134.896 175.798 119.3 174.615 100.062 174.615C80.824 174.615 65.2285 175.798 65.2285 177.258C65.2285 178.717 80.824 179.9 100.062 179.9Z" fill="#BBF2FF"></path><path d="M108.744 122.351C109.679 159.028 100.802 168.256 100.802 168.256C96.363 161.364 80.3604 166.504 74.8705 159.145C65.8764 147.347 59.9193 151.786 47.6546 142.325C41.347 137.419 39.9453 133.681 39.9453 133.681C62.7226 124.336 78.9588 108.451 78.9588 108.451C78.9588 108.451 108.16 101.91 108.744 122.351Z" fill="#FFD530"></path><path d="M98.8159 174.914C99.0496 174.447 108.978 154.706 107.576 153.889C106.292 153.071 85.2664 149.216 85.2664 149.216C85.2664 149.216 84.4487 168.957 86.4344 172.11C86.4344 172.11 88.6538 176.899 92.5084 177.484C94.1437 177.951 97.4143 178.301 98.8159 174.914Z" fill="#1BA8FF"></path><path d="M85.1484 156.926C85.1484 156.926 92.04 157.159 94.1425 156.692C94.1425 156.692 92.2736 160.43 85.1484 163.467V156.926Z" fill="#008AE8"></path><path d="M74.4032 117.562C74.4032 117.562 61.6712 130.41 64.241 152.721C64.241 152.721 104.773 162.182 106.642 157.743C112.365 144.077 109.912 132.747 110.496 122.818L74.4032 117.562Z" fill="#1BA8FF"></path><mask id="mask0_8914_15882" maskUnits="userSpaceOnUse" x="63" y="117" width="48" height="42" style="mask-type: alpha;"><path d="M74.4032 117.562C74.4032 117.562 61.6712 130.41 64.241 152.721C64.241 152.721 104.773 162.182 106.642 157.743C112.365 144.077 109.912 132.747 110.496 122.818L74.4032 117.562Z" fill="#1BA8FF"></path></mask><g mask="url(#mask0_8914_15882)"><path d="M88.1862 149.1C71.3661 146.763 61.9047 142.675 61.4375 142.558L62.4888 140.339C62.7224 140.339 80.7106 148.048 110.847 148.399V150.852C102.203 150.735 94.6106 150.034 88.1862 149.1Z" fill="white"></path></g><path d="M64.0077 144.661L63.6573 150.384C63.6573 150.384 56.6489 151.552 57.1161 156.458C57.4665 159.846 68.9136 164.635 76.1556 163.934C84.3321 163.233 87.2522 156.926 87.2522 156.926" fill="#1BA8FF"></path><path d="M142.268 78.1978C140.049 106.932 114.468 128.425 85.1499 126.322C55.9482 124.22 33.9886 99.223 36.3247 70.4886C38.544 41.7541 64.1247 20.2617 93.4432 22.3642C122.645 24.4667 144.605 49.4634 142.268 78.1978Z" fill="url(#paint0_linear_8914_15882)"></path><path d="M87.486 125.037C58.2844 122.935 36.3247 97.9382 38.6608 69.2037C40.0625 50.7482 51.1592 35.213 66.6945 27.1533C49.9911 34.9793 37.8432 50.9819 36.3247 70.3718C33.9886 99.1062 55.9482 124.103 85.1499 126.205C96.0129 127.023 106.292 124.57 115.052 119.664C106.759 123.752 97.2978 125.738 87.486 125.037Z" fill="#008AE8"></path><path d="M111.9 38.0164C115.521 40.1189 124.866 47.0105 128.253 55.6542C128.721 56.939 130.122 57.4063 131.407 56.8222C132.458 56.355 132.926 55.1869 132.575 54.1357C131.174 49.9306 126.618 39.418 114.12 33.8113C112.835 33.2273 111.2 33.9281 110.849 35.3298V35.5634C110.616 36.4979 111.083 37.4323 111.9 38.0164Z" fill="url(#paint1_linear_8914_15882)"></path><path d="M105.709 35.4466C107.111 35.797 108.512 34.9794 108.863 33.4609C109.213 32.0592 108.395 30.6575 106.877 30.3071C105.475 29.9567 104.074 30.7743 103.723 32.2928C103.49 33.6945 104.307 35.0962 105.709 35.4466Z" fill="#BBF2FF"></path><path d="M142.269 78.1978C142.736 71.8903 142.152 65.8163 140.517 60.0928C130.238 62.3121 119.025 64.4146 106.76 65.8163C89.3557 67.9188 73.3532 68.5029 59.2196 68.2693C58.1683 72.9415 58.2851 76.913 58.6355 80.1835C61.0885 103.895 82.3473 121.066 106.059 118.613C114.236 117.795 121.594 114.758 127.668 110.086C135.962 101.793 141.335 90.5793 142.269 78.1978Z" fill="white"></path><path d="M140.517 60.0928C139.116 60.3264 137.831 60.6768 136.429 60.9104C138.181 66.7508 138.882 73.0583 138.415 79.5995C137.363 93.3827 130.822 105.531 121.244 114.174C123.58 113.006 125.683 111.605 127.785 110.086C136.079 101.793 141.452 90.5793 142.386 78.1978C142.737 71.8903 142.153 65.8163 140.517 60.0928Z" fill="#BBF2FF"></path><path fill-rule="evenodd" clip-rule="evenodd" d="M136.782 166.692L128.138 156.881C126.269 154.778 123.583 153.727 120.896 153.844L107.814 154.661C100.572 155.128 95.7827 147.302 99.5205 141.112L106.178 129.898C107.58 127.562 107.814 124.642 106.763 122.072L101.857 109.924C99.1701 103.266 105.01 96.2579 112.136 97.8932L124.868 100.697C127.554 101.281 130.474 100.697 132.577 98.9444L142.622 90.6512C148.229 86.0957 156.639 89.4831 157.34 96.6083L158.625 109.574C158.975 112.377 160.377 114.713 162.713 116.232L173.81 123.24C179.883 127.095 179.299 136.206 172.641 139.009L160.61 144.149C158.041 145.2 156.172 147.536 155.471 150.106L152.2 162.721C150.448 170.08 141.454 172.065 136.782 166.692Z" fill="#FFB700"></path><path fill-rule="evenodd" clip-rule="evenodd" d="M172.524 139.243L160.493 144.382C157.923 145.434 156.054 147.77 155.353 150.339L152.083 162.955C151.966 163.422 151.849 163.889 151.615 164.239C126.385 153.493 113.42 125.693 120.545 99.8789L124.516 100.697C127.203 101.281 130.123 100.697 132.225 98.9444L142.271 90.6512C147.878 86.0957 156.288 89.4831 156.988 96.6083L158.273 109.574C158.624 112.377 160.025 114.713 162.362 116.232L173.458 123.24C179.766 127.328 179.065 136.323 172.524 139.243Z" fill="#FFD530"></path><path fill-rule="evenodd" clip-rule="evenodd" d="M122.648 159.684C121.714 159.334 120.779 159.684 120.312 160.735L120.079 161.086C119.728 162.02 120.079 162.955 121.13 163.422C122.064 163.772 122.999 163.422 123.466 162.37L123.7 162.02C123.933 161.086 123.466 160.034 122.648 159.684ZM181.402 107.004C180.935 106.07 180 105.719 179.066 105.953L168.553 110.275C167.619 110.742 167.268 111.676 167.502 112.611C167.619 113.078 168.086 113.428 168.553 113.662C169.021 113.896 169.488 113.779 169.838 113.662L180.351 109.34C181.285 108.873 181.636 107.822 181.402 107.004ZM167.619 155.829L164.115 150.573C163.531 149.755 162.479 149.522 161.545 150.106C160.727 150.69 160.494 151.741 161.078 152.676L164.582 157.932C164.815 158.165 165.049 158.516 165.4 158.516C165.984 158.749 166.568 158.749 167.035 158.399C167.852 157.815 168.086 156.647 167.619 155.829ZM99.6373 124.058L93.3298 125.343C92.3953 125.576 91.6945 126.511 91.9281 127.445C92.0449 128.029 92.3953 128.497 92.9793 128.73C93.3298 128.964 93.6802 128.847 94.0306 128.847L100.338 127.562C101.273 127.328 101.973 126.394 101.74 125.46C101.623 124.408 100.572 123.824 99.6373 124.058ZM186.074 106.303C186.542 106.537 187.009 106.42 187.359 106.303L188.41 105.953C189.345 105.486 189.695 104.551 189.462 103.617C189.111 102.682 188.06 102.332 187.126 102.565L186.074 102.916C185.14 103.383 184.789 104.318 185.023 105.252C185.373 105.836 185.607 106.07 186.074 106.303ZM114.238 76.0503C114.355 76.5176 114.822 76.868 115.289 77.1016C115.757 77.3352 116.224 77.2184 116.574 77.1016C117.509 76.6344 117.859 75.6999 117.626 74.7655L117.275 73.7142C116.808 72.7798 115.873 72.4293 114.939 72.6629C114.005 73.1302 113.654 74.0646 113.888 74.9991L114.238 76.0503ZM124.868 92.2865C125.335 93.2209 124.868 94.1554 123.816 94.6226C123.349 94.7394 122.882 94.8562 122.531 94.6226C122.181 94.389 121.831 94.1554 121.48 93.5713L117.158 83.0587C116.691 82.1243 117.158 81.1898 118.21 80.7226C119.144 80.2554 120.079 80.7226 120.546 81.7739L124.868 92.2865Z" fill="#FFB700"></path><path fill-rule="evenodd" clip-rule="evenodd" d="M156.522 124.058C152.901 122.539 148.813 124.291 147.294 127.913C145.776 131.534 147.528 135.622 151.149 137.14C154.77 138.659 158.858 136.907 160.377 133.286C161.895 129.665 160.143 125.576 156.522 124.058ZM125.802 119.035C124.283 122.656 120.195 124.408 116.574 122.89C112.953 121.371 111.201 117.283 112.72 113.662C114.238 110.041 118.326 108.289 121.947 109.807C125.568 111.326 127.32 115.414 125.802 119.035Z" fill="#FF9F41"></path><path fill-rule="evenodd" clip-rule="evenodd" d="M152.9 133.052L148.111 131.066C147.177 130.716 146.242 131.066 145.775 132.118C145.425 133.052 145.775 133.986 146.826 134.454L147.41 134.687C144.14 140.528 136.898 142.981 130.59 140.411C124.283 137.841 121.012 130.949 122.647 124.525L123.232 124.759C124.166 125.109 125.1 124.759 125.568 123.707C125.918 122.773 125.568 121.839 124.516 121.371L119.727 119.386C118.793 119.035 117.858 119.386 117.391 120.437C117.041 121.371 117.391 122.306 118.442 122.773L119.26 123.123C116.807 131.3 121.012 140.294 129.072 143.681C137.248 147.069 146.359 143.681 150.564 136.089L151.382 136.439C152.316 136.79 153.251 136.439 153.718 135.388C154.185 134.454 153.718 133.402 152.9 133.052ZM145.658 121.488L146.009 121.722C146.943 122.072 147.878 121.722 148.345 120.67C148.695 119.736 148.345 118.802 147.294 118.334L146.943 118.101C146.009 117.75 145.074 118.101 144.607 119.152C144.257 120.086 144.724 121.021 145.658 121.488ZM131.875 113.896C132.226 112.961 133.277 112.611 134.211 112.844L134.562 113.078C135.496 113.428 135.847 114.48 135.613 115.414C135.263 116.349 134.211 116.699 133.277 116.465L132.926 116.232C131.875 115.765 131.525 114.713 131.875 113.896Z" fill="#27272A"></path><path d="M92.0419 138.003C125.098 134.966 129.654 118.73 118.323 117.795C107.11 116.861 82.1133 127.257 82.1133 127.257" fill="url(#paint2_linear_8914_15882)"></path><path d="M89.3555 138.003C89.3555 138.003 108.862 134.732 119.258 129.476C119.258 129.476 111.549 136.835 89.9395 139.054L89.3555 138.003Z" fill="#008AE8"></path><defs><linearGradient id="paint0_linear_8914_15882" x1="67.9118" y1="122.275" x2="110.669" y2="26.4173" gradientUnits="userSpaceOnUse"><stop stop-color="#1BA8FF"></stop><stop offset="0.9986" stop-color="#4ACAFF"></stop></linearGradient><linearGradient id="paint1_linear_8914_15882" x1="132.163" y1="56.1081" x2="109.367" y2="36.7513" gradientUnits="userSpaceOnUse"><stop stop-color="#E1FFFC" stop-opacity="0"></stop><stop offset="1" stop-color="#BBF2FF"></stop></linearGradient><linearGradient id="paint2_linear_8914_15882" x1="94.9051" y1="139.725" x2="110.658" y2="112.44" gradientUnits="userSpaceOnUse"><stop stop-color="#1BA8FF"></stop><stop offset="0.3624" stop-color="#1EAAFF"></stop><stop offset="0.6076" stop-color="#27B0FF"></stop><stop offset="0.8175" stop-color="#36BBFF"></stop><stop offset="0.9986" stop-color="#4ACAFF"></stop></linearGradient></defs></svg>