<svg width="24" height="24" viewBox="0 0 24 24" fill="none" xmlns="http://www.w3.org/2000/svg">
<g clip-path="url(#clip0_955_70824)">
<path d="M17.743 14.87L19.524 13.315C19.836 13.043 19.869 12.569 19.596 12.257C19.324 11.945 18.85 11.913 18.537 12.185L15.256 15.049C15.094 15.191 15 15.397 15 15.614C15 15.831 15.094 16.037 15.257 16.179L18.538 19.042C18.681 19.166 18.856 19.227 19.031 19.227C19.24 19.227 19.448 19.14 19.596 18.97C19.868 18.658 19.836 18.184 19.524 17.912L17.766 16.378C20.388 16.457 22.499 18.646 22.499 21.34V23.249C22.499 23.663 22.835 23.999 23.249 23.999C23.663 23.999 24 23.664 24 23.25V21.341C24 17.81 21.204 14.935 17.743 14.87Z" fill="#9B9B9B"/>
<path d="M9.22029 0L4.36029 0.02C3.73029 0.02 3.14029 0.37 2.84029 0.92L0.300293 5.52L8.73029 5.5L9.22029 0Z" fill="#9B9B9B"/>
<path d="M19.6802 5.47998L17.1102 0.879981C16.8002 0.32998 16.2202 -0.0200195 15.5802 -0.0200195L10.7202 -1.95298e-05L11.2302 5.49998L19.6802 5.47998Z" fill="#9B9B9B"/>
<path d="M20.0002 10.18C19.7002 10.06 19.3702 9.99997 19.0302 9.99997C18.3702 9.99997 17.7302 10.24 17.2202 10.68L13.9402 13.54C13.3402 14.06 13.0002 14.82 13.0002 15.61C13.0002 16.41 13.3402 17.16 13.9402 17.69L16.5802 19.99L1.61023 20.03C1.60023 20.03 1.60023 20.03 1.60023 20.03C0.740234 20.03 0.0302344 19.32 0.0302344 18.45L-0.00976562 7.01997L9.24024 6.99997H10.7402L19.9902 6.96997L20.0002 10.18Z" fill="#9B9B9B"/>
</g>
<defs>
<clipPath id="clip0_955_70824">
<rect width="24" height="24" fill="white"/>
</clipPath>
</defs>
</svg>
